HIERARCHY
ROOT Hips
{
	OFFSET 0.000000 0.000000 0.000000
	CHANNELS 6 Xposition Yposition Zposition Zrotation Yrotation Xrotation 
	JOINT LHipJoint
	{
		OFFSET 0.000000 0.000000 0.000000
		CHANNELS 3 Zrotation Yrotation Xrotation
		JOINT LeftUpLeg
		{
			OFFSET 1.363060 -1.794630 0.839290
			CHANNELS 3 Zrotation Yrotation Xrotation
			JOINT LeftLeg
			{
				OFFSET 2.448110 -6.726130 0.000000
				CHANNELS 3 Zrotation Yrotation Xrotation
				JOINT LeftFoot
				{
					OFFSET 2.562200 -7.039590 0.000000
					CHANNELS 3 Zrotation Yrotation Xrotation
					JOINT LeftToeBase
					{
						OFFSET 0.157640 -0.433110 2.322550
						CHANNELS 3 Zrotation Yrotation Xrotation
						End Site
						{
							OFFSET 0.000000 0.000000 0.000000
						}
					}
				}
			}
		}
	}
	JOINT RHipJoint
	{
		OFFSET 0.000000 0.000000 0.000000
		CHANNELS 3 Zrotation Yrotation Xrotation
		JOINT RightUpLeg
		{
			OFFSET -1.305520 -1.794630 0.839290
			CHANNELS 3 Zrotation Yrotation Xrotation
			JOINT RightLeg
			{
				OFFSET -2.542530 -6.985550 0.000000
				CHANNELS 3 Zrotation Yrotation Xrotation
				JOINT RightFoot
				{
					OFFSET -2.568260 -7.056230 0.000000
					CHANNELS 3 Zrotation Yrotation Xrotation
					JOINT RightToeBase
					{
						OFFSET -0.164730 -0.452590 2.363150
						CHANNELS 3 Zrotation Yrotation Xrotation
						End Site
						{
							OFFSET 0.000000 0.000000 0.000000
						}
					}
				}
			}
		}
	}
	JOINT LowerBack
	{
		OFFSET 0.000000 0.000000 0.000000
		CHANNELS 3 Zrotation Yrotation Xrotation
		JOINT Spine
		{
			OFFSET 0.028270 2.035590 -0.193380
			CHANNELS 3 Zrotation Yrotation Xrotation
			JOINT Spine1
			{
				OFFSET 0.056720 2.048850 -0.042750
				CHANNELS 3 Zrotation Yrotation Xrotation
				JOINT Neck
				{
					OFFSET 0.000000 0.000000 0.000000
					CHANNELS 3 Zrotation Yrotation Xrotation
					JOINT Neck1
					{
						OFFSET -0.054170 1.746240 0.172020
						CHANNELS 3 Zrotation Yrotation Xrotation
						JOINT Head
						{
							OFFSET 0.104070 1.761360 -0.123970
							CHANNELS 3 Zrotation Yrotation Xrotation
							End Site
							{
								OFFSET 0.000000 0.000000 0.000000
							}
						}
					}
				}
				JOINT LeftShoulder
				{
					OFFSET 0.000000 0.000000 0.000000
					CHANNELS 3 Zrotation Yrotation Xrotation
					JOINT LeftArm
					{
						OFFSET 3.362410 1.200890 -0.311210
						CHANNELS 3 Zrotation Yrotation Xrotation
						JOINT LeftForeArm
						{
							OFFSET 4.983000 -0.000000 -0.000000
							CHANNELS 3 Zrotation Yrotation Xrotation
							JOINT LeftHand
							{
								OFFSET 3.483560 -0.000000 -0.000000
								CHANNELS 3 Zrotation Yrotation Xrotation
								JOINT LeftFingerBase
								{
									OFFSET 0.000000 0.000000 0.000000
									CHANNELS 3 Zrotation Yrotation Xrotation
									JOINT LeftHandIndex1
									{
										OFFSET 0.715260 -0.000000 -0.000000
										CHANNELS 3 Zrotation Yrotation Xrotation
										End Site
										{
											OFFSET 0.000000 0.000000 0.000000
										}
									}
								}
								JOINT LThumb
								{
									OFFSET 0.000000 0.000000 0.000000
									CHANNELS 3 Zrotation Yrotation Xrotation
									End Site
									{
										OFFSET 0.000000 0.000000 0.000000
									}
								}
							}
						}
					}
				}
				JOINT RightShoulder
				{
					OFFSET 0.000000 0.000000 0.000000
					CHANNELS 3 Zrotation Yrotation Xrotation
					JOINT RightArm
					{
						OFFSET -3.136600 1.374050 -0.404650
						CHANNELS 3 Zrotation Yrotation Xrotation
						JOINT RightForeArm
						{
							OFFSET -5.241900 -0.000000 -0.000000
							CHANNELS 3 Zrotation Yrotation Xrotation
							JOINT RightHand
							{
								OFFSET -3.444170 -0.000000 -0.000000
								CHANNELS 3 Zrotation Yrotation Xrotation
								JOINT RightFingerBase
								{
									OFFSET 0.000000 0.000000 0.000000
									CHANNELS 3 Zrotation Yrotation Xrotation
									JOINT RightHandIndex1
									{
										OFFSET -0.622530 -0.000000 -0.000000
										CHANNELS 3 Zrotation Yrotation Xrotation
										End Site
										{
											OFFSET 0.000000 0.000000 0.000000
										}
									}
								}
								JOINT RThumb
								{
									OFFSET 0.000000 0.000000 0.000000
									CHANNELS 3 Zrotation Yrotation Xrotation
									End Site
									{
										OFFSET 0.000000 0.000000 0.000000
									}
								}
							}
						}
					}
				}
			}
		}
	}
}
MOTION
Frames: 5
Frame Time: 0.008333
-1.663051 17.069093 -0.920528 176.443975 83.309173 177.106310 -10.707885 4.886578 0.056691 -6.116986 6.812607 11.430265 -0.804712 2.295161 25.216474 0.566897 1.092654 11.071549 0.214201 -0.000000 -72.552600 9.663707 -0.635449 1.764349 4.046198 -1.734523 -20.946248 2.301658 -0.500949 11.957518 0.561150 3.972714 5.385124 0.483700 -0.000001 -63.705500 4.253659 -4.760979 -3.093109 0.538536 -5.180744 -2.853835 -5.502479 -5.124011 2.343841 8.251220 -20.006660 -10.271896 -2.920223 -0.197013 -0.645291 0.000000 0.000000 0.000000 3.185332 11.921475 -0.272132 -46.156879 -6.602288 4.149666 -0.880794 -71.164645 -0.020011 4.906431 -0.009040 -0.010691 -0.117330 0.269387 0.000000 0.000000 0.000000 0.000000 0.000000 0.000000 0.000000 15.533094 -18.099429 0.165185 71.459699 -18.160935 -9.954125 4.387667 21.253805 0.002240 3.817308 0.789941 0.026003 0.107126 -0.002413 -0.000000 0.000000 0.000000 0.000000 0.000000 0.000000 0.000000 
-1.495375 17.073649 -0.922180 179.578021 82.870106 -179.952734 -10.886398 4.961656 0.034829 -5.176463 7.268881 10.742052 -0.635390 2.410410 27.076646 0.644853 1.053691 12.372491 0.160300 -0.000000 -71.916000 9.641613 -0.724031 1.559140 4.559120 -2.528939 -20.521925 2.309314 -0.575892 12.644336 0.569416 4.054100 5.715351 0.521400 -0.000000 -62.812300 4.600788 -4.671609 -2.950570 0.597250 -5.112308 -2.852587 -5.522238 -5.055054 2.281000 8.276566 -19.894861 -10.270968 -2.944531 -0.199210 -0.646130 0.000000 0.000000 0.000000 3.164301 11.899155 -0.325948 -47.106036 -6.183042 4.489549 -0.881175 -71.537305 -0.019636 4.855944 -0.049326 -0.012282 -0.116012 0.268904 0.000000 0.000000 0.000000 0.000000 0.000000 0.000000 0.000000 15.562834 -17.911506 0.191813 71.218807 -17.664745 -9.737416 4.369952 21.185043 0.002350 3.571219 0.809415 0.024908 0.108138 -0.003339 -0.000000 0.000000 0.000000 0.000000 0.000000 0.000000 0.000000 
-1.330557 17.077463 -0.924160 -177.667722 82.381850 -177.394384 -11.075675 5.020564 -0.004874 -4.205597 7.841688 9.936447 -0.462011 2.513568 29.047618 0.750399 1.239512 13.621602 0.171600 0.000000 -70.530800 9.608142 -0.814429 1.349894 5.081169 -3.387698 -20.066670 2.323910 -0.634061 13.252712 0.569414 4.077237 5.881402 0.536400 -0.000000 -61.456100 4.927985 -4.579511 -2.786956 0.650774 -5.038528 -2.848284 -5.544137 -4.981146 2.215195 8.316371 -19.755119 -10.268795 -2.967035 -0.201199 -0.646779 0.000000 0.000000 0.000000 3.150067 11.874602 -0.375986 -48.122110 -5.768704 4.842425 -0.884887 -71.816264 -0.019343 4.824873 -0.084476 -0.013674 -0.114978 0.268156 0.000000 0.000000 0.000000 0.000000 0.000000 0.000000 0.000000 15.590778 -17.695511 0.223002 71.015195 -17.113074 -9.526798 4.349498 21.105118 0.002458 3.310779 0.828431 0.023613 0.109098 -0.004426 -0.000000 0.000000 0.000000 0.000000 0.000000 0.000000 0.000000 
-1.168592 17.080465 -0.926209 -175.308186 81.845053 -175.227588 -11.268770 5.058108 -0.062327 -3.227588 8.514021 9.022519 -0.288574 2.603488 31.107256 0.885408 1.734642 14.759939 0.291000 0.000000 -68.325600 9.565005 -0.906481 1.145710 5.595835 -4.267596 -19.579749 2.344330 -0.676272 13.783230 0.561513 4.040747 5.878232 0.527500 0.000000 -59.689399 5.229574 -4.485937 -2.610237 0.697870 -4.960494 -2.842476 -5.569399 -4.903341 2.144906 8.367866 -19.578483 -10.261185 -2.989323 -0.203180 -0.646051 0.000000 0.000000 0.000000 3.136817 11.840662 -0.420922 -49.188168 -5.346816 5.205799 -0.891454 -72.009234 -0.019109 4.810270 -0.113310 -0.014867 -0.114177 0.267025 0.000000 0.000000 0.000000 0.000000 0.000000 0.000000 0.000000 15.618639 -17.442177 0.258103 70.852381 -16.521375 -9.346916 4.327046 21.022943 0.002545 3.047436 0.837891 0.021918 0.109957 -0.005667 -0.000000 0.000000 0.000000 0.000000 0.000000 0.000000 0.000000 
-1.009380 17.082642 -0.928151 -173.344790 81.261335 -173.446415 -11.458622 5.070258 -0.136850 -2.268095 9.264785 8.011710 -0.119917 2.680382 33.227737 1.049427 2.604814 15.719891 0.557999 -0.000000 -65.291000 9.514482 -0.999102 0.955099 6.088229 -5.124899 -19.064269 2.368680 -0.703832 14.241777 0.545529 3.942031 5.708008 0.494700 -0.000001 -57.553900 5.499011 -4.391717 -2.428122 0.737509 -4.878857 -2.835387 -5.597849 -4.822221 2.073746 8.429559 -19.373236 -10.249723 -3.010879 -0.205087 -0.644366 0.000000 0.000000 0.000000 3.116988 11.810947 -0.460505 -50.290165 -4.934458 5.586906 -0.901074 -72.108562 -0.018916 4.809336 -0.136972 -0.015760 -0.113608 0.265465 0.000000 0.000000 0.000000 0.000000 0.000000 0.000000 0.000000 15.647625 -17.160921 0.294777 70.721716 -15.882441 -9.166045 4.302512 20.933054 0.002619 2.777024 0.844122 0.020124 0.110746 -0.007041 -0.000000 0.000000 0.000000 0.000000 0.000000 0.000000 0.000000 
